<svg viewBox="-3.52 -3.52 23.04 23.04" xmlns="http://www.w3.org/2000/svg" fill="#000000"><g id="SVGRepo_bgCarrier" stroke-width="0"><rect x="-3.52" y="-3.52" width="23.04" height="23.04" rx="11.52" fill="#242424" strokewidth="0"></rect></g><g id="SVGRepo_tracerCarrier" stroke-linecap="round" stroke-linejoin="round"></g><g id="SVGRepo_iconCarrier"> <path d="M14.652 3.555A8 8 0 108 16a1 1 0 100-2 6 6 0 116-6 1 1 0 102 0 8 8 0 00-1.348-4.445z" fill="#00ff7b"></path> <path d="M13 11.586l-1.293-1.293a1 1 0 10-1.414 1.414L11.586 13l-1.293 1.293a1 1 0 101.414 1.414L13 14.414l1.293 1.293a1 1 0 001.414-1.414L14.414 13l1.293-1.293a1 1 0 00-1.414-1.414L13 11.586zm-2.707-6.293L7 8.586 5.707 7.293l-.094-.083a1 1 0 00-1.32 1.497l2 2 .094.083a1 1 0 001.32-.083l4-4 .083-.094a1 1 0 00-1.497-1.32z" fill="#00ff7b"></path> </g></svg>